<?xml version="1.0" standalone="no"?>
<!DOCTYPE svg PUBLIC "-//W3C//DTD SVG 20010904//EN"
 "http://www.w3.org/TR/2001/REC-SVG-20010904/DTD/svg10.dtd">
<svg version="1.0" xmlns="http://www.w3.org/2000/svg"
 width="905.000000pt" height="1280.000000pt" viewBox="0 0 905.000000 1280.000000"
 preserveAspectRatio="xMidYMid meet">
<g transform="translate(0.000000,1280.000000) scale(0.100000,-0.100000)"
fill="#000000" stroke="none">
<path d="M2935 10845 c-153 -39 -281 -148 -352 -300 l-28 -60 -3 -4025 -2
-4025 21 -60 c46 -129 145 -237 276 -302 l77 -38 1751 0 1752 0 85 42 c96 48
192 139 241 230 61 113 57 -174 57 4134 0 2783 -3 3963 -11 4005 -34 188 -207
363 -397 403 -82 17 -3400 14 -3467 -4z m3719 -1021 c15 -14 16 -340 16 -3443
0 -2652 -3 -3430 -12 -3439 -9 -9 -455 -12 -1944 -12 l-1933 0 -20 26 -21 27
0 3413 c0 1877 3 3419 6 3428 6 15 187 16 1949 16 1754 0 1945 -2 1959 -16z"/>
</g>
</svg>
